HIERARCHY
ROOT Hips
{
 OFFSET 0.000000 0.000000 0.000000
 CHANNELS 6 Xposition Yposition Zposition Yrotation Xrotation Zrotation
 JOINT Chest
 {
  OFFSET 0.000000 10.080317 -0.001081
  CHANNELS 3 Yrotation Xrotation Zrotation
  JOINT Chest2
  {
   OFFSET 0.000000 11.096852 0.001963
   CHANNELS 3 Yrotation Xrotation Zrotation
   JOINT Chest3
   {
    OFFSET 0.000000 10.026525 0.000000
    CHANNELS 3 Yrotation Xrotation Zrotation
    JOINT Chest4
    {
     OFFSET 0.000000 10.026525 0.000000
     CHANNELS 3 Yrotation Xrotation Zrotation
     JOINT Neck
     {
      OFFSET 0.000000 14.108171 0.000000
      CHANNELS 3 Yrotation Xrotation Zrotation
      JOINT Head
      {
       OFFSET 0.000000 9.333493 0.004668
       CHANNELS 3 Yrotation Xrotation Zrotation
       End Site
       {
        OFFSET 0.000000 17.851786 0.002438
       }
      }
     }
     JOINT RightCollar
     {
      OFFSET -3.071622 7.873185 0.000000
      CHANNELS 3 Yrotation Xrotation Zrotation
      JOINT RightShoulder
      {
       OFFSET -14.378659 0.000000 0.000000
       CHANNELS 3 Yrotation Xrotation Zrotation
       JOINT RightElbow
       {
        OFFSET -30.778728 0.000000 0.000000
        CHANNELS 3 Yrotation Xrotation Zrotation
        JOINT RightWrist
        {
         OFFSET -25.164217 0.000000 0.000000
         CHANNELS 3 Yrotation Xrotation Zrotation
         End Site
         {
          OFFSET -18.796788 0.000000 0.000000
         }
        }
       }
      }
     }
     JOINT LeftCollar
     {
      OFFSET 3.071622 7.873185 0.000000
      CHANNELS 3 Yrotation Xrotation Zrotation
      JOINT LeftShoulder
      {
       OFFSET 14.378659 0.000000 0.000000
       CHANNELS 3 Yrotation Xrotation Zrotation
       JOINT LeftElbow
       {
        OFFSET 30.778728 0.000000 0.000000
        CHANNELS 3 Yrotation Xrotation Zrotation
        JOINT LeftWrist
        {
         OFFSET 25.164217 0.000000 0.000000
         CHANNELS 3 Yrotation Xrotation Zrotation
         End Site
         {
          OFFSET 18.796788 0.000000 0.000000
         }
        }
       }
      }
     }
    }
   }
  }
 }
 JOINT RightHip
 {
  OFFSET -8.194923 0.005295 0.000540
  CHANNELS 3 Yrotation Xrotation Zrotation
  JOINT RightKnee
  {
   OFFSET 0.000000 -42.473320 -0.000511
   CHANNELS 3 Yrotation Xrotation Zrotation
   JOINT RightAnkle
   {
    OFFSET 0.000000 -41.474259 -0.000865
    CHANNELS 3 Yrotation Xrotation Zrotation
    JOINT RightToe
    {
     OFFSET 0.000000 -7.354994 16.712725
     CHANNELS 3 Yrotation Xrotation Zrotation
     End Site
     {
      OFFSET 0.000000 -1.553903 6.764158
     }
    }
   }
  }
 }
 JOINT LeftHip
 {
  OFFSET 8.194923 0.005295 0.000540
  CHANNELS 3 Yrotation Xrotation Zrotation
  JOINT LeftKnee
  {
   OFFSET 0.000000 -42.473320 -0.000511
   CHANNELS 3 Yrotation Xrotation Zrotation
   JOINT LeftAnkle
   {
    OFFSET 0.000000 -41.474259 -0.000865
    CHANNELS 3 Yrotation Xrotation Zrotation
    JOINT LeftToe
    {
     OFFSET 0.000000 -7.354994 16.712725
     CHANNELS 3 Yrotation Xrotation Zrotation
     End Site
     {
      OFFSET 0.000000 -1.553903 6.764158
     }
    }
   }
  }
 }
}
MOTION
Frames: 12
Frame Time: 0.016667
-89.050997 92.157984 8.139595 5.675844 -1.829914 -1.047491 -1.874511 5.031136 -0.147650 -0.873682 2.251815 -0.069318 -0.873682 2.251815 -0.069318 -0.654922 1.688964 -0.048761 -3.239057 21.684396 3.612995 -6.879903 4.389247 7.451737 -2.603115 -0.089104 10.484556 -4.130599 -1.221235 64.375324 25.872529 15.029997 12.551156 -2.464198 1.615380 -9.724336 -4.952230 -0.315196 -5.987553 0.984619 -12.738697 -63.377648 -25.486218 17.551595 -23.619280 3.649494 3.123831 16.237416 -2.940051 -20.017071 4.329200 -11.884368 11.748308 0.465914 -8.412650 12.174322 -13.100469 0.041064 1.599629 -2.141284 9.455476 3.077806 -2.649358 0.422213 6.804789 -4.834009 3.198567 -10.003259 6.776210 -0.057211 1.322676 -0.195971
-89.196250 92.233633 8.045864 6.178509 -1.614206 -0.938192 -1.782206 5.089479 -0.321965 -0.805768 2.273109 -0.102333 -0.805768 2.273109 -0.102333 -0.603866 1.704970 -0.073741 -3.245791 21.597024 3.467691 -6.857649 4.215287 7.196838 -2.794269 -0.166326 10.413602 -3.842736 -0.907667 64.452819 26.191148 15.478874 13.015302 -2.517728 1.762308 -9.488091 -4.946412 -0.249849 -5.924092 1.011603 -12.921566 -63.427738 -24.870240 17.895285 -23.100690 3.697300 3.116997 16.214421 -3.112253 -20.089028 4.239382 -12.295546 12.670909 0.423613 -9.486162 9.949333 -11.562008 -0.037691 1.953503 -3.025541 9.289703 3.201683 -2.813580 0.270553 6.000676 -4.577967 3.187252 -9.706115 6.414955 -0.055128 1.266977 -0.032739
-89.348912 92.300288 7.986434 6.589812 -1.408584 -0.872964 -1.691742 5.163704 -0.425783 -0.751267 2.295729 -0.119374 -0.751267 2.295729 -0.119374 -0.562926 1.721946 -0.086696 -3.223548 21.500821 3.280991 -6.771587 4.019162 6.859348 -2.909105 -0.317190 10.306986 -3.584624 -0.628429 64.398682 26.618183 16.019875 13.506348 -2.616320 1.919796 -9.223388 -4.881184 -0.273176 -5.847902 1.275758 -12.894605 -63.714343 -24.028298 18.073155 -22.357296 3.765240 3.038386 16.254059 -2.797892 -20.154224 4.157554 -11.791465 13.440213 0.428533 -10.794228 7.917582 -10.498358 -0.058436 2.339215 -3.082532 9.144733 3.310536 -2.885481 0.314725 5.308095 -4.372227 3.082843 -9.550131 6.034519 -0.059131 1.255053 0.114945
-89.484335 92.362593 7.943554 6.942351 -1.220437 -0.829028 -1.645800 5.193244 -0.484444 -0.718692 2.312252 -0.130269 -0.718692 2.312252 -0.130269 -0.538453 1.734345 -0.094968 -3.167229 21.422473 3.089688 -6.620848 3.853441 6.502433 -2.920376 -0.425075 10.207896 -3.437819 -0.465448 64.272664 27.035197 16.524890 13.935790 -2.722672 2.090327 -8.968272 -4.714677 -0.269602 -5.760462 1.660549 -12.695088 -64.150996 -23.043926 17.949546 -21.481580 3.775048 2.894157 16.351063 -2.234562 -20.221679 4.067395 -11.412392 14.075333 0.293091 -11.596943 6.151996 -9.732998 -0.056739 2.652357 -2.737107 9.017290 3.413453 -2.916668 0.489858 4.686427 -4.196332 2.930337 -9.466748 5.636525 -0.070295 1.256331 0.252238
-89.597810 92.428054 7.921603 7.267287 -1.078742 -0.817592 -1.632126 5.243613 -0.495217 -0.703361 2.339870 -0.137704 -0.703361 2.339870 -0.137704 -0.526920 1.755064 -0.100569 -3.084397 21.333391 2.908710 -6.425159 3.667282 6.156990 -2.875186 -0.522437 10.134112 -3.317083 -0.445276 64.088863 27.306962 16.814095 14.208487 -2.804503 2.234295 -8.775133 -4.534725 -0.227256 -5.650335 2.135921 -12.433058 -64.631673 -21.952639 17.632930 -20.668542 3.757119 2.698419 16.437440 -1.594838 -20.205492 3.926654 -11.176297 14.656575 0.119222 -12.056232 4.581205 -9.114348 -0.041787 2.830359 -2.255445 8.937244 3.553986 -2.920704 0.660820 4.111412 -4.013315 2.769271 -9.425831 5.228559 -0.070581 1.251458 0.370637
-89.680781 92.491567 7.920548 7.580987 -0.990997 -0.848287 -1.607686 5.299367 -0.469920 -0.697793 2.367125 -0.149010 -0.697793 2.367125 -0.149010 -0.522693 1.775516 -0.109038 -2.984571 21.244614 2.758347 -6.206809 3.483562 5.861660 -2.843904 -0.561046 10.124276 -3.292807 -0.585799 63.912059 27.405474 16.844010 14.289018 -2.881766 2.287407 -8.669912 -4.412070 -0.098110 -5.506118 2.539982 -12.143354 -65.071426 -20.872076 17.263570 -19.956832 3.662746 2.522679 16.493599 -1.170012 -20.101135 3.824100 -10.963896 15.169454 -0.029889 -12.241645 3.241319 -8.439758 -0.018953 2.860945 -1.924712 9.049543 3.776586 -2.865154 0.719042 3.532163 -3.864595 2.553156 -9.393989 4.848667 -0.060051 1.230568 0.470767
-89.737610 92.548100 7.942843 7.908281 -0.911793 -0.877716 -1.614358 5.360549 -0.441857 -0.705794 2.392043 -0.154398 -0.705794 2.392043 -0.154398 -0.528664 1.794214 -0.113018 -2.874362 21.143330 2.630703 -5.976340 3.278312 5.604778 -2.813488 -0.594728 10.133150 -3.423010 -0.841803 63.774731 27.334965 16.673451 14.157992 -2.878468 2.267566 -8.702487 -4.319754 0.076288 -5.363238 2.676869 -11.812601 -65.484417 -19.786094 17.015485 -19.287920 3.602280 2.383130 16.447244 -1.043881 -19.889901 3.763426 -10.875833 15.570423 -0.184530 -11.837850 2.206328 -7.591431 -0.010140 2.704181 -1.824028 9.298775 4.032001 -2.796493 0.789419 2.977558 -3.724727 2.234063 -9.412566 4.462829 -0.050911 1.219885 0.557216
-89.774123 92.594192 7.977461 8.223484 -0.815520 -0.890794 -1.636069 5.408122 -0.416882 -0.718252 2.412188 -0.152942 -0.718252 2.412188 -0.152942 -0.538006 1.809324 -0.111853 -2.763674 21.032063 2.522350 -5.750583 3.056540 5.382774 -2.779209 -0.618494 10.129886 -3.663369 -1.156629 63.691106 27.180826 16.277952 13.871494 -2.834703 2.202276 -8.845000 -4.257602 0.239504 -5.257916 2.511967 -11.446719 -65.846524 -18.756951 17.039495 -18.622962 3.594136 2.360963 16.237845 -1.152302 -19.616199 3.742139 -10.807194 15.822727 -0.251678 -11.071790 1.433997 -6.818504 -0.004796 2.429171 -1.796393 9.697847 4.255328 -2.706160 0.868964 2.508855 -3.655224 1.832669 -9.498351 4.088813 -0.054044 1.209906 0.640842
-89.785421 92.632551 8.037859 8.517025 -0.728572 -0.886381 -1.655093 5.461218 -0.396722 -0.726414 2.429876 -0.144131 -0.726414 2.429876 -0.144131 -0.544155 1.822581 -0.105193 -2.666706 20.932044 2.435501 -5.554864 2.858557 5.202640 -2.756884 -0.628903 10.126471 -3.934731 -1.518625 63.594988 26.985269 15.711931 13.470567 -2.753010 2.098612 -9.032655 -4.246843 0.362956 -5.189611 2.120623 -11.050852 -66.193175 -17.794321 17.460469 -17.969329 3.690034 2.424428 15.900521 -1.809201 -19.219340 3.821517 -10.384070 15.964574 -0.194119 -10.311132 0.804353 -6.396391 -0.005177 2.083308 -1.600725 10.148251 4.464708 -2.615655 0.958505 2.149526 -3.622616 1.425648 -9.692377 3.694984 -0.057160 1.215130 0.733262
-89.772458 92.659268 8.102038 8.758394 -0.633542 -0.863149 -1.674526 5.490596 -0.359369 -0.732766 2.444551 -0.128972 -0.732766 2.444551 -0.128972 -0.548975 1.833571 -0.093782 -2.570571 20.846340 2.372376 -5.366474 2.689129 5.064656 -2.697485 -0.612870 10.108729 -4.238191 -1.931222 63.476422 26.777906 15.024909 13.040417 -2.668252 1.955848 -9.275595 -4.218270 0.459305 -5.171905 1.620294 -10.677481 -66.542756 -16.865816 18.164455 -17.375368 3.832292 2.544187 15.497331 -2.538975 -18.847407 3.892830 -10.194211 16.078561 -0.162483 -9.633781 0.294409 -6.239151 -0.001557 1.699659 -1.306195 10.576176 4.626169 -2.556541 1.037369 1.882255 -3.619437 1.087669 -9.976396 3.313301 -0.060139 1.241786 0.820045
-89.731386 92.673365 8.175773 8.935857 -0.544699 -0.803407 -1.689529 5.518160 -0.327329 -0.736319 2.459209 -0.114805 -0.736319 2.459209 -0.114805 -0.551692 1.844548 -0.083126 -2.475860 20.776543 2.329022 -5.185399 2.550850 4.961860 -2.590578 -0.605578 10.074438 -4.502726 -2.345445 63.306429 26.593622 14.267691 12.622272 -2.554328 1.819805 -9.545258 -4.157509 0.506485 -5.171977 1.126498 -10.305157 -66.924011 -16.002862 19.007932 -16.857331 4.026521 2.649533 15.047850 -3.467257 -18.495558 3.998948 -10.295002 16.227710 -0.267667 -9.066833 -0.212461 -6.187131 -0.002870 1.331599 -1.018395 10.901887 4.783132 -2.570773 1.205610 1.654135 -3.604698 0.790746 -10.290108 2.959160 -0.056419 1.262260 0.877152
-89.676861 92.674230 8.269865 9.046029 -0.457516 -0.720153 -1.682642 5.537748 -0.297044 -0.733849 2.469993 -0.103726 -0.733849 2.469993 -0.103726 -0.549882 1.852622 -0.074815 -2.378929 20.721656 2.307995 -5.005943 2.441697 4.897985 -2.441115 -0.604928 10.058157 -4.735621 -2.758138 63.078843 26.445473 13.542784 12.263568 -2.430449 1.669188 -9.825776 -4.093638 0.529017 -5.159391 0.751397 -9.931024 -67.281911 -15.290510 19.820446 -16.497654 4.251076 2.760639 14.585381 -4.417620 -18.219438 4.079621 -10.794065 16.431554 -0.473620 -8.708071 -0.730433 -6.196255 -0.001646 1.000349 -0.768694 11.203288 4.976518 -2.612466 1.411944 1.397736 -3.588904 0.488785 -10.585195 2.635462 -0.031999 1.263055 0.899517
